<mxfile host="app.diagrams.net" modified="2023-03-12T15:37:23.131Z" agent="5.0 (Windows)" etag="D9MYxx4Ha5jIEfT3098Q" version="21.0.6" type="github">
  <diagram id="C5RBs43oDa-KdzZeNtuy" name="Page-1">
    <mxGraphModel dx="3061" dy="2225" grid="0" gridSize="10" guides="1" tooltips="1" connect="1" arrows="1" fold="1" page="0" pageScale="1" pageWidth="827" pageHeight="1169" background="none" math="0" shadow="0">
      <root>
        <mxCell id="WIyWlLk6GJQsqaUBKTNV-0" />
        <mxCell id="WIyWlLk6GJQsqaUBKTNV-1" parent="WIyWlLk6GJQsqaUBKTNV-0" />
        <mxCell id="HeNyDOu_JDfbKaOdh0E8-0" value="Player" style="swimlane;fontStyle=1;align=center;verticalAlign=top;childLayout=stackLayout;horizontal=1;startSize=26;horizontalStack=0;resizeParent=1;resizeParentMax=0;resizeLast=0;collapsible=1;marginBottom=0;fillColor=#f5f5f5;fontColor=#333333;strokeColor=#666666;" parent="WIyWlLk6GJQsqaUBKTNV-1" vertex="1">
          <mxGeometry x="440" y="-600" width="340" height="210" as="geometry" />
        </mxCell>
        <mxCell id="HeNyDOu_JDfbKaOdh0E8-1" value="- nickname : String&#xa;- score: int&#xa;- bookshelf : BookshelfDisplay&#xa;- personalGoalCard : PersonalGoalCard&#xa;- board : Board&#xa;- obtainedCommonGoalCard : ArrayList&lt;CommonGoalCard&gt;&#xa;" style="text;strokeColor=#666666;fillColor=#f5f5f5;align=left;verticalAlign=middle;spacingLeft=4;spacingRight=4;overflow=hidden;rotatable=0;points=[[0,0.5],[1,0.5]];portConstraint=eastwest;fontColor=#333333;" parent="HeNyDOu_JDfbKaOdh0E8-0" vertex="1">
          <mxGeometry y="26" width="340" height="94" as="geometry" />
        </mxCell>
        <mxCell id="HeNyDOu_JDfbKaOdh0E8-3" value="+ setPersonaGoalCard()&#xa;+ setScore()&#xa;+ getScore() : int&#xa;+ selectTiles()&#xa;+ getEndGameToken()" style="text;strokeColor=#666666;fillColor=#f5f5f5;align=left;verticalAlign=middle;spacingLeft=4;spacingRight=4;overflow=hidden;rotatable=0;points=[[0,0.5],[1,0.5]];portConstraint=eastwest;fontColor=#333333;" parent="HeNyDOu_JDfbKaOdh0E8-0" vertex="1">
          <mxGeometry y="120" width="340" height="90" as="geometry" />
        </mxCell>
        <mxCell id="HeNyDOu_JDfbKaOdh0E8-4" value="Bookshelf" style="swimlane;fontStyle=1;align=center;verticalAlign=top;childLayout=stackLayout;horizontal=1;startSize=26;horizontalStack=0;resizeParent=1;resizeParentMax=0;resizeLast=0;collapsible=1;marginBottom=0;fillColor=#f5f5f5;fontColor=#333333;strokeColor=#666666;" parent="WIyWlLk6GJQsqaUBKTNV-1" vertex="1">
          <mxGeometry x="440" y="-280" width="280" height="180" as="geometry" />
        </mxCell>
        <mxCell id="HeNyDOu_JDfbKaOdh0E8-5" value="&lt;u&gt;- row : int&lt;br&gt;- col : int&lt;/u&gt;&lt;br&gt;- bookshelf : itemTile[row][col]&lt;br&gt;- selectedColumn: int" style="text;strokeColor=#666666;fillColor=#f5f5f5;align=left;verticalAlign=middle;spacingLeft=4;spacingRight=4;overflow=hidden;rotatable=0;points=[[0,0.5],[1,0.5]];portConstraint=eastwest;html=1;fontColor=#333333;" parent="HeNyDOu_JDfbKaOdh0E8-4" vertex="1">
          <mxGeometry y="26" width="280" height="74" as="geometry" />
        </mxCell>
        <mxCell id="HeNyDOu_JDfbKaOdh0E8-7" value="+ updateTiles()&#xa;+ getItemTile() : ItemTile[][]&#xa;+ setSelectedColumn()&#xa;+ getSelectedColumn() : intÂ " style="text;strokeColor=#666666;fillColor=#f5f5f5;align=left;verticalAlign=top;spacingLeft=4;spacingRight=4;overflow=hidden;rotatable=0;points=[[0,0.5],[1,0.5]];portConstraint=eastwest;fontColor=#333333;" parent="HeNyDOu_JDfbKaOdh0E8-4" vertex="1">
          <mxGeometry y="100" width="280" height="80" as="geometry" />
        </mxCell>
        <mxCell id="HeNyDOu_JDfbKaOdh0E8-8" value="PersonalGoalCard" style="swimlane;fontStyle=1;align=center;verticalAlign=top;childLayout=stackLayout;horizontal=1;startSize=26;horizontalStack=0;resizeParent=1;resizeParentMax=0;resizeLast=0;collapsible=1;marginBottom=0;fillColor=#f5f5f5;fontColor=#333333;strokeColor=#666666;" parent="WIyWlLk6GJQsqaUBKTNV-1" vertex="1">
          <mxGeometry x="960" y="-570" width="250" height="130" as="geometry" />
        </mxCell>
        <mxCell id="HeNyDOu_JDfbKaOdh0E8-9" value="- personaGoal: ItemTile[][]&#xa;- pointsMapping : HashMap&lt;Integer, Integer&gt;" style="text;strokeColor=#666666;fillColor=#f5f5f5;align=left;verticalAlign=middle;spacingLeft=4;spacingRight=4;overflow=hidden;rotatable=0;points=[[0,0.5],[1,0.5]];portConstraint=eastwest;fontColor=#333333;" parent="HeNyDOu_JDfbKaOdh0E8-8" vertex="1">
          <mxGeometry y="26" width="250" height="54" as="geometry" />
        </mxCell>
        <mxCell id="HeNyDOu_JDfbKaOdh0E8-11" value="+ getPersonalGoal() : ItemTile[][]&#xa;+ buildPersonalGoal() : ItemTile[][]" style="text;strokeColor=#666666;fillColor=#f5f5f5;align=left;verticalAlign=middle;spacingLeft=4;spacingRight=4;overflow=hidden;rotatable=0;points=[[0,0.5],[1,0.5]];portConstraint=eastwest;fontColor=#333333;" parent="HeNyDOu_JDfbKaOdh0E8-8" vertex="1">
          <mxGeometry y="80" width="250" height="50" as="geometry" />
        </mxCell>
        <mxCell id="HeNyDOu_JDfbKaOdh0E8-12" value="Board" style="swimlane;fontStyle=1;align=center;verticalAlign=top;childLayout=stackLayout;horizontal=1;startSize=26;horizontalStack=0;resizeParent=1;resizeParentMax=0;resizeLast=0;collapsible=1;marginBottom=0;labelBackgroundColor=none;fillColor=#f5f5f5;fontColor=#333333;strokeColor=#666666;" parent="WIyWlLk6GJQsqaUBKTNV-1" vertex="1">
          <mxGeometry x="440" y="-880" width="280" height="159" as="geometry" />
        </mxCell>
        <mxCell id="HeNyDOu_JDfbKaOdh0E8-13" value="- board : itemTile[][]" style="text;strokeColor=#666666;fillColor=#f5f5f5;align=left;verticalAlign=middle;spacingLeft=4;spacingRight=4;overflow=hidden;rotatable=0;points=[[0,0.5],[1,0.5]];portConstraint=eastwest;labelBackgroundColor=none;fontColor=#333333;" parent="HeNyDOu_JDfbKaOdh0E8-12" vertex="1">
          <mxGeometry y="26" width="280" height="44" as="geometry" />
        </mxCell>
        <mxCell id="HeNyDOu_JDfbKaOdh0E8-15" value="+ getNumOfPlayers() : int&#xa;+ getBoard() : ItemTile[][]&#xa;+ getTiles(ItemTile[] tiles() : ItemTile[]&#xa;+ refill()" style="text;strokeColor=#666666;fillColor=#f5f5f5;align=left;verticalAlign=middle;spacingLeft=4;spacingRight=4;overflow=hidden;rotatable=0;points=[[0,0.5],[1,0.5]];portConstraint=eastwest;labelBackgroundColor=none;fontColor=#333333;" parent="HeNyDOu_JDfbKaOdh0E8-12" vertex="1">
          <mxGeometry y="70" width="280" height="89" as="geometry" />
        </mxCell>
        <mxCell id="HeNyDOu_JDfbKaOdh0E8-16" value="&lt;&lt;Enumeration&gt;&gt;&#xa;ItemTileType" style="swimlane;fontStyle=0;childLayout=stackLayout;horizontal=1;startSize=43;fillColor=#f5f5f5;horizontalStack=0;resizeParent=1;resizeParentMax=0;resizeLast=0;collapsible=1;marginBottom=0;fontColor=#333333;strokeColor=#666666;" parent="WIyWlLk6GJQsqaUBKTNV-1" vertex="1">
          <mxGeometry x="270" y="156.25" width="165" height="164" as="geometry" />
        </mxCell>
        <mxCell id="HeNyDOu_JDfbKaOdh0E8-17" value="CATS&#xa;BOOKS&#xa;GAMES&#xa;FRAMES&#xa;TROPHIES&#xa;PLANTS&#xa;EMPTY" style="text;strokeColor=#666666;fillColor=#f5f5f5;align=left;verticalAlign=top;spacingLeft=4;spacingRight=4;overflow=hidden;rotatable=0;points=[[0,0.5],[1,0.5]];portConstraint=eastwest;fontColor=#333333;" parent="HeNyDOu_JDfbKaOdh0E8-16" vertex="1">
          <mxGeometry y="43" width="165" height="121" as="geometry" />
        </mxCell>
        <mxCell id="HeNyDOu_JDfbKaOdh0E8-39" value="&lt;&lt;interface&gt;&gt;&#xa;CommonGoalCard" style="swimlane;fontStyle=1;align=center;verticalAlign=middle;childLayout=stackLayout;horizontal=1;startSize=30;horizontalStack=0;resizeParent=1;resizeParentMax=0;resizeLast=0;collapsible=1;marginBottom=0;labelBackgroundColor=none;fillColor=#f5f5f5;fontColor=#333333;strokeColor=#666666;" parent="WIyWlLk6GJQsqaUBKTNV-1" vertex="1">
          <mxGeometry x="-581.99" y="-250" width="280" height="90" as="geometry" />
        </mxCell>
        <mxCell id="HeNyDOu_JDfbKaOdh0E8-42" value="+ checkPattern() : boolean" style="text;strokeColor=#666666;fillColor=#f5f5f5;align=left;verticalAlign=middle;spacingLeft=4;spacingRight=4;overflow=hidden;rotatable=0;points=[[0,0.5],[1,0.5]];portConstraint=eastwest;fontColor=#333333;" parent="HeNyDOu_JDfbKaOdh0E8-39" vertex="1">
          <mxGeometry y="30" width="280" height="60" as="geometry" />
        </mxCell>
        <mxCell id="TG_g14gipUIJD300kOHJ-9" value="ItemTile" style="swimlane;fontStyle=1;align=center;verticalAlign=top;childLayout=stackLayout;horizontal=1;startSize=26;horizontalStack=0;resizeParent=1;resizeParentMax=0;resizeLast=0;collapsible=1;marginBottom=0;fillColor=#f5f5f5;fontColor=#333333;strokeColor=#666666;" parent="WIyWlLk6GJQsqaUBKTNV-1" vertex="1">
          <mxGeometry x="475" y="40" width="245" height="101" as="geometry" />
        </mxCell>
        <mxCell id="TG_g14gipUIJD300kOHJ-10" value="- ItemTileType : itemTileType;" style="text;strokeColor=#666666;fillColor=#f5f5f5;align=left;verticalAlign=top;spacingLeft=4;spacingRight=4;overflow=hidden;rotatable=0;points=[[0,0.5],[1,0.5]];portConstraint=eastwest;fontColor=#333333;" parent="TG_g14gipUIJD300kOHJ-9" vertex="1">
          <mxGeometry y="26" width="245" height="33" as="geometry" />
        </mxCell>
        <mxCell id="TG_g14gipUIJD300kOHJ-12" value="+ getItemTileType() : ItemTileType" style="text;strokeColor=#666666;fillColor=#f5f5f5;align=left;verticalAlign=top;spacingLeft=4;spacingRight=4;overflow=hidden;rotatable=0;points=[[0,0.5],[1,0.5]];portConstraint=eastwest;fontColor=#333333;" parent="TG_g14gipUIJD300kOHJ-9" vertex="1">
          <mxGeometry y="59" width="245" height="42" as="geometry" />
        </mxCell>
        <mxCell id="dTjtzGn-DZdnPieQcymC-0" value="GameModel" style="swimlane;fontStyle=1;align=center;verticalAlign=middle;childLayout=stackLayout;horizontal=1;startSize=40;horizontalStack=0;resizeParent=1;resizeParentMax=0;resizeLast=0;collapsible=1;marginBottom=0;fillColor=#f5f5f5;strokeColor=#666666;fontColor=#333333;" parent="WIyWlLk6GJQsqaUBKTNV-1" vertex="1">
          <mxGeometry x="-160" y="-880" width="360" height="420" as="geometry" />
        </mxCell>
        <mxCell id="dTjtzGn-DZdnPieQcymC-1" value="- numOfPlayer : int&#xa;- playerList : CircularArrayList&lt;Player&gt;&#xa;- commonGoalCardDeck : CommonGoalCardDeck&#xa;- board : Board&#xa;- state : State&#xa;- round : Round" style="text;strokeColor=#666666;fillColor=#f5f5f5;align=left;verticalAlign=middle;spacingLeft=4;spacingRight=4;overflow=hidden;rotatable=0;points=[[0,0.5],[1,0.5]];portConstraint=eastwest;fontColor=#333333;" parent="dTjtzGn-DZdnPieQcymC-0" vertex="1">
          <mxGeometry y="40" width="360" height="120" as="geometry" />
        </mxCell>
        <mxCell id="dTjtzGn-DZdnPieQcymC-3" value="+ init() : void&#xa;+ start() : void&#xa;+ setNumOfPlayer()Â &#xa;+ setPlayerList()&#xa;+ setCommonGoalCards()&#xa;+ addCommonGoalCards()&#xa;+ setBoard()&#xa;+ setState()&#xa;+ getNumPlayer() : Player&#xa;+ getPlayerList() : CircularArrayList&lt;Player&gt;&#xa;+ getCommonGoalCards() : Stack&lt;CommonGoalCard&gt;&#xa;+ getBoard() : Board&#xa;+ getState() : State&#xa;+ getCurrentPlayer() : Player&#xa;+ addPlayer()&#xa;+ checkWinner() : Player&#xa;" style="text;strokeColor=#666666;fillColor=#f5f5f5;align=left;verticalAlign=middle;spacingLeft=4;spacingRight=4;overflow=hidden;rotatable=0;points=[[0,0.5],[1,0.5]];portConstraint=eastwest;fontColor=#333333;" parent="dTjtzGn-DZdnPieQcymC-0" vertex="1">
          <mxGeometry y="160" width="360" height="260" as="geometry" />
        </mxCell>
        <mxCell id="dTjtzGn-DZdnPieQcymC-8" value="&lt;&lt;Enumeration&gt;&gt;&#xa;State" style="swimlane;fontStyle=0;childLayout=stackLayout;horizontal=1;startSize=43;fillColor=#f5f5f5;horizontalStack=0;resizeParent=1;resizeParentMax=0;resizeLast=0;collapsible=1;marginBottom=0;fontColor=#333333;strokeColor=#666666;" parent="WIyWlLk6GJQsqaUBKTNV-1" vertex="1">
          <mxGeometry x="240" y="-750" width="160" height="120" as="geometry" />
        </mxCell>
        <mxCell id="dTjtzGn-DZdnPieQcymC-9" value="INIT&#xa;MID&#xa;END" style="text;strokeColor=#666666;fillColor=#f5f5f5;align=left;verticalAlign=middle;spacingLeft=4;spacingRight=4;overflow=hidden;rotatable=0;points=[[0,0.5],[1,0.5]];portConstraint=eastwest;fontColor=#333333;" parent="dTjtzGn-DZdnPieQcymC-8" vertex="1">
          <mxGeometry y="43" width="160" height="77" as="geometry" />
        </mxCell>
        <mxCell id="AF8taGSQTb52YkFh4nOF-19" value="has" style="endArrow=classic;html=1;rounded=0;exitX=1.006;exitY=0.02;exitDx=0;exitDy=0;exitPerimeter=0;entryX=0;entryY=0.25;entryDx=0;entryDy=0;" parent="WIyWlLk6GJQsqaUBKTNV-1" source="dTjtzGn-DZdnPieQcymC-1" target="HeNyDOu_JDfbKaOdh0E8-12" edge="1">
          <mxGeometry relative="1" as="geometry">
            <mxPoint x="260" y="-840" as="sourcePoint" />
            <mxPoint x="400" y="-810" as="targetPoint" />
            <Array as="points" />
          </mxGeometry>
        </mxCell>
        <mxCell id="AF8taGSQTb52YkFh4nOF-21" value="1" style="edgeLabel;resizable=0;html=1;align=left;verticalAlign=bottom;fillColor=#FFF4C3;" parent="AF8taGSQTb52YkFh4nOF-19" connectable="0" vertex="1">
          <mxGeometry x="-1" relative="1" as="geometry">
            <mxPoint x="-2" as="offset" />
          </mxGeometry>
        </mxCell>
        <mxCell id="AF8taGSQTb52YkFh4nOF-22" value="1" style="edgeLabel;resizable=0;html=1;align=right;verticalAlign=bottom;fillColor=#FFF4C3;" parent="AF8taGSQTb52YkFh4nOF-19" connectable="0" vertex="1">
          <mxGeometry x="1" relative="1" as="geometry" />
        </mxCell>
        <mxCell id="AF8taGSQTb52YkFh4nOF-24" value="has" style="endArrow=classic;html=1;rounded=1;exitX=1.006;exitY=0.02;exitDx=0;exitDy=0;exitPerimeter=0;entryX=0;entryY=0.25;entryDx=0;entryDy=0;" parent="WIyWlLk6GJQsqaUBKTNV-1" edge="1">
          <mxGeometry relative="1" as="geometry">
            <mxPoint x="201.99999999999986" y="-557.75" as="sourcePoint" />
            <mxPoint x="439.84" y="-560" as="targetPoint" />
            <Array as="points" />
          </mxGeometry>
        </mxCell>
        <mxCell id="AF8taGSQTb52YkFh4nOF-25" value="1" style="edgeLabel;resizable=0;html=1;align=left;verticalAlign=bottom;fillColor=#FFF4C3;" parent="AF8taGSQTb52YkFh4nOF-24" connectable="0" vertex="1">
          <mxGeometry x="-1" relative="1" as="geometry">
            <mxPoint x="-2" as="offset" />
          </mxGeometry>
        </mxCell>
        <mxCell id="AF8taGSQTb52YkFh4nOF-26" value="2...4" style="edgeLabel;resizable=0;html=1;align=right;verticalAlign=bottom;fillColor=#FFF4C3;" parent="AF8taGSQTb52YkFh4nOF-24" connectable="0" vertex="1">
          <mxGeometry x="1" relative="1" as="geometry" />
        </mxCell>
        <mxCell id="AF8taGSQTb52YkFh4nOF-27" value="has" style="endArrow=classic;html=1;rounded=1;exitX=0.412;exitY=-0.014;exitDx=0;exitDy=0;entryX=0.5;entryY=1.034;entryDx=0;entryDy=0;entryPerimeter=0;exitPerimeter=0;" parent="WIyWlLk6GJQsqaUBKTNV-1" source="HeNyDOu_JDfbKaOdh0E8-0" target="HeNyDOu_JDfbKaOdh0E8-15" edge="1">
          <mxGeometry relative="1" as="geometry">
            <mxPoint x="571.4999999999999" y="-600" as="sourcePoint" />
            <mxPoint x="588.5" y="-712.25" as="targetPoint" />
            <Array as="points" />
          </mxGeometry>
        </mxCell>
        <mxCell id="AF8taGSQTb52YkFh4nOF-28" value="1" style="edgeLabel;resizable=0;html=1;align=left;verticalAlign=bottom;fillColor=#FFF4C3;direction=south;" parent="AF8taGSQTb52YkFh4nOF-27" connectable="0" vertex="1">
          <mxGeometry x="-1" relative="1" as="geometry">
            <mxPoint as="offset" />
          </mxGeometry>
        </mxCell>
        <mxCell id="AF8taGSQTb52YkFh4nOF-29" value="1" style="edgeLabel;resizable=0;html=1;align=right;verticalAlign=bottom;fillColor=#FFF4C3;" parent="AF8taGSQTb52YkFh4nOF-27" connectable="0" vertex="1">
          <mxGeometry x="1" relative="1" as="geometry">
            <mxPoint x="10" y="18" as="offset" />
          </mxGeometry>
        </mxCell>
        <mxCell id="AF8taGSQTb52YkFh4nOF-30" value="playerList" style="text;html=1;align=center;verticalAlign=middle;resizable=0;points=[];autosize=1;strokeColor=none;fillColor=none;" parent="WIyWlLk6GJQsqaUBKTNV-1" vertex="1">
          <mxGeometry x="370" y="-560" width="70" height="30" as="geometry" />
        </mxCell>
        <mxCell id="AF8taGSQTb52YkFh4nOF-31" value="has" style="endArrow=classic;html=1;rounded=0;exitX=0.412;exitY=1;exitDx=0;exitDy=0;exitPerimeter=0;" parent="WIyWlLk6GJQsqaUBKTNV-1" source="HeNyDOu_JDfbKaOdh0E8-3" target="HeNyDOu_JDfbKaOdh0E8-4" edge="1">
          <mxGeometry relative="1" as="geometry">
            <mxPoint x="579.5" y="-282.03" as="sourcePoint" />
            <mxPoint x="890" y="-340" as="targetPoint" />
            <Array as="points" />
          </mxGeometry>
        </mxCell>
        <mxCell id="AF8taGSQTb52YkFh4nOF-32" value="1" style="edgeLabel;resizable=0;html=1;align=left;verticalAlign=bottom;fillColor=#FFF4C3;direction=south;" parent="AF8taGSQTb52YkFh4nOF-31" connectable="0" vertex="1">
          <mxGeometry x="-1" relative="1" as="geometry">
            <mxPoint y="20" as="offset" />
          </mxGeometry>
        </mxCell>
        <mxCell id="AF8taGSQTb52YkFh4nOF-33" value="1" style="edgeLabel;resizable=0;html=1;align=right;verticalAlign=bottom;fillColor=#FFF4C3;" parent="AF8taGSQTb52YkFh4nOF-31" connectable="0" vertex="1">
          <mxGeometry x="1" relative="1" as="geometry">
            <mxPoint x="10" as="offset" />
          </mxGeometry>
        </mxCell>
        <mxCell id="AF8taGSQTb52YkFh4nOF-34" value="has" style="endArrow=classic;html=1;rounded=1;edgeStyle=orthogonalEdgeStyle;" parent="WIyWlLk6GJQsqaUBKTNV-1" source="dTjtzGn-DZdnPieQcymC-0" target="Bc4TnsWlUAblkgccjZVZ-6" edge="1">
          <mxGeometry x="-0.0031" relative="1" as="geometry">
            <mxPoint x="19.5" y="-460" as="sourcePoint" />
            <mxPoint x="19.5" y="-340" as="targetPoint" />
            <mxPoint as="offset" />
          </mxGeometry>
        </mxCell>
        <mxCell id="AF8taGSQTb52YkFh4nOF-35" value="1" style="edgeLabel;resizable=0;html=1;align=left;verticalAlign=bottom;fillColor=#FFF4C3;direction=south;" parent="AF8taGSQTb52YkFh4nOF-34" connectable="0" vertex="1">
          <mxGeometry x="-1" relative="1" as="geometry">
            <mxPoint x="-10" as="offset" />
          </mxGeometry>
        </mxCell>
        <mxCell id="AF8taGSQTb52YkFh4nOF-37" value="has" style="endArrow=classic;html=1;rounded=1;exitX=1;exitY=0.5;exitDx=0;exitDy=0;entryX=0;entryY=0.315;entryDx=0;entryDy=0;entryPerimeter=0;" parent="WIyWlLk6GJQsqaUBKTNV-1" edge="1" target="HeNyDOu_JDfbKaOdh0E8-9" source="HeNyDOu_JDfbKaOdh0E8-1">
          <mxGeometry relative="1" as="geometry">
            <mxPoint x="719.9999999999998" y="-527.75" as="sourcePoint" />
            <mxPoint x="957.8399999999999" y="-530" as="targetPoint" />
            <Array as="points" />
          </mxGeometry>
        </mxCell>
        <mxCell id="AF8taGSQTb52YkFh4nOF-38" value="1" style="edgeLabel;resizable=0;html=1;align=left;verticalAlign=bottom;fillColor=#FFF4C3;" parent="AF8taGSQTb52YkFh4nOF-37" connectable="0" vertex="1">
          <mxGeometry x="-1" relative="1" as="geometry">
            <mxPoint as="offset" />
          </mxGeometry>
        </mxCell>
        <mxCell id="AF8taGSQTb52YkFh4nOF-39" value="1" style="edgeLabel;resizable=0;html=1;align=right;verticalAlign=bottom;fillColor=#FFF4C3;" parent="AF8taGSQTb52YkFh4nOF-37" connectable="0" vertex="1">
          <mxGeometry x="1" relative="1" as="geometry" />
        </mxCell>
        <mxCell id="AF8taGSQTb52YkFh4nOF-40" value="Round" style="swimlane;fontStyle=1;align=center;verticalAlign=top;childLayout=stackLayout;horizontal=1;startSize=26;horizontalStack=0;resizeParent=1;resizeParentMax=0;resizeLast=0;collapsible=1;marginBottom=0;labelBackgroundColor=none;fillColor=#f5f5f5;fontColor=#333333;strokeColor=#666666;" parent="WIyWlLk6GJQsqaUBKTNV-1" vertex="1">
          <mxGeometry x="-120" y="-360" width="280" height="200" as="geometry" />
        </mxCell>
        <mxCell id="AF8taGSQTb52YkFh4nOF-41" value="- roundState : RoundState&#xa;- currentPlayer : Player&#xa;- numOfRounds : int" style="text;strokeColor=#666666;fillColor=#f5f5f5;align=left;verticalAlign=middle;spacingLeft=4;spacingRight=4;overflow=hidden;rotatable=0;points=[[0,0.5],[1,0.5]];portConstraint=eastwest;labelBackgroundColor=none;fontColor=#333333;" parent="AF8taGSQTb52YkFh4nOF-40" vertex="1">
          <mxGeometry y="26" width="280" height="54" as="geometry" />
        </mxCell>
        <mxCell id="AF8taGSQTb52YkFh4nOF-42" value="+ initRound() : RoundState&#xa;+ randomStartingPlayer() :Â &#xa;+ getNextPlayer(): Player&#xa;+ getCurrentRound(): Round&#xa;+ setRoundState: RoundState&#xa;+ getCurrentPlayer : Player" style="text;strokeColor=#666666;fillColor=#f5f5f5;align=left;verticalAlign=middle;spacingLeft=4;spacingRight=4;overflow=hidden;rotatable=0;points=[[0,0.5],[1,0.5]];portConstraint=eastwest;labelBackgroundColor=none;fontColor=#333333;" parent="AF8taGSQTb52YkFh4nOF-40" vertex="1">
          <mxGeometry y="80" width="280" height="120" as="geometry" />
        </mxCell>
        <mxCell id="AF8taGSQTb52YkFh4nOF-45" value="&lt;&lt;Enumeration&gt;&gt;&#xa;RoundState" style="swimlane;fontStyle=0;childLayout=stackLayout;horizontal=1;startSize=43;fillColor=#f5f5f5;horizontalStack=0;resizeParent=1;resizeParentMax=0;resizeLast=0;collapsible=1;marginBottom=0;fontColor=#333333;strokeColor=#666666;" parent="WIyWlLk6GJQsqaUBKTNV-1" vertex="1">
          <mxGeometry x="190" y="-240" width="160" height="120" as="geometry" />
        </mxCell>
        <mxCell id="AF8taGSQTb52YkFh4nOF-46" value="WAITING&#xa;PLAYING" style="text;strokeColor=#666666;fillColor=#f5f5f5;align=left;verticalAlign=middle;spacingLeft=4;spacingRight=4;overflow=hidden;rotatable=0;points=[[0,0.5],[1,0.5]];portConstraint=eastwest;fontColor=#333333;" parent="AF8taGSQTb52YkFh4nOF-45" vertex="1">
          <mxGeometry y="43" width="160" height="77" as="geometry" />
        </mxCell>
        <mxCell id="AF8taGSQTb52YkFh4nOF-47" value="has" style="endArrow=classic;html=1;rounded=0;" parent="WIyWlLk6GJQsqaUBKTNV-1" source="dTjtzGn-DZdnPieQcymC-0" target="AF8taGSQTb52YkFh4nOF-40" edge="1">
          <mxGeometry relative="1" as="geometry">
            <mxPoint x="260" y="-390" as="sourcePoint" />
            <mxPoint x="260" y="-270" as="targetPoint" />
            <Array as="points" />
          </mxGeometry>
        </mxCell>
        <mxCell id="AF8taGSQTb52YkFh4nOF-48" value="1" style="edgeLabel;resizable=0;html=1;align=left;verticalAlign=bottom;fillColor=#FFF4C3;direction=south;" parent="AF8taGSQTb52YkFh4nOF-47" connectable="0" vertex="1">
          <mxGeometry x="-1" relative="1" as="geometry">
            <mxPoint y="20" as="offset" />
          </mxGeometry>
        </mxCell>
        <mxCell id="AF8taGSQTb52YkFh4nOF-49" value="1" style="edgeLabel;resizable=0;html=1;align=right;verticalAlign=bottom;fillColor=#FFF4C3;" parent="AF8taGSQTb52YkFh4nOF-47" connectable="0" vertex="1">
          <mxGeometry x="1" relative="1" as="geometry">
            <mxPoint x="20" as="offset" />
          </mxGeometry>
        </mxCell>
        <mxCell id="AF8taGSQTb52YkFh4nOF-50" value="has" style="endArrow=classic;html=1;rounded=1;edgeStyle=elbowEdgeStyle;" parent="WIyWlLk6GJQsqaUBKTNV-1" source="AF8taGSQTb52YkFh4nOF-40" target="HeNyDOu_JDfbKaOdh0E8-0" edge="1">
          <mxGeometry x="0.0485" relative="1" as="geometry">
            <mxPoint x="30" y="-450" as="sourcePoint" />
            <mxPoint x="30" y="-350" as="targetPoint" />
            <mxPoint as="offset" />
          </mxGeometry>
        </mxCell>
        <mxCell id="AF8taGSQTb52YkFh4nOF-51" value="1" style="edgeLabel;resizable=0;html=1;align=left;verticalAlign=bottom;fillColor=#FFF4C3;direction=south;" parent="AF8taGSQTb52YkFh4nOF-50" connectable="0" vertex="1">
          <mxGeometry x="-1" relative="1" as="geometry">
            <mxPoint y="20" as="offset" />
          </mxGeometry>
        </mxCell>
        <mxCell id="AF8taGSQTb52YkFh4nOF-52" value="1" style="edgeLabel;resizable=0;html=1;align=right;verticalAlign=bottom;fillColor=#FFF4C3;" parent="AF8taGSQTb52YkFh4nOF-50" connectable="0" vertex="1">
          <mxGeometry x="1" relative="1" as="geometry">
            <mxPoint x="-10" y="20" as="offset" />
          </mxGeometry>
        </mxCell>
        <mxCell id="AF8taGSQTb52YkFh4nOF-93" value="CommonGoalCard3" style="swimlane;fontStyle=1;align=center;verticalAlign=top;childLayout=stackLayout;horizontal=1;startSize=26;horizontalStack=0;resizeParent=1;resizeParentMax=0;resizeLast=0;collapsible=1;marginBottom=0;fillColor=#f5f5f5;fontColor=#333333;strokeColor=#666666;" parent="WIyWlLk6GJQsqaUBKTNV-1" vertex="1">
          <mxGeometry x="-827.99" y="200.25" width="245" height="101" as="geometry" />
        </mxCell>
        <mxCell id="AF8taGSQTb52YkFh4nOF-94" value="" style="text;strokeColor=#666666;fillColor=#f5f5f5;align=left;verticalAlign=top;spacingLeft=4;spacingRight=4;overflow=hidden;rotatable=0;points=[[0,0.5],[1,0.5]];portConstraint=eastwest;fontColor=#333333;" parent="AF8taGSQTb52YkFh4nOF-93" vertex="1">
          <mxGeometry y="26" width="245" height="33" as="geometry" />
        </mxCell>
        <mxCell id="AF8taGSQTb52YkFh4nOF-95" value="+ checkPattern() : boolean" style="text;strokeColor=#666666;fillColor=#f5f5f5;align=left;verticalAlign=top;spacingLeft=4;spacingRight=4;overflow=hidden;rotatable=0;points=[[0,0.5],[1,0.5]];portConstraint=eastwest;fontColor=#333333;" parent="AF8taGSQTb52YkFh4nOF-93" vertex="1">
          <mxGeometry y="59" width="245" height="42" as="geometry" />
        </mxCell>
        <mxCell id="AF8taGSQTb52YkFh4nOF-97" value="CommonGoalCard4" style="swimlane;fontStyle=1;align=center;verticalAlign=top;childLayout=stackLayout;horizontal=1;startSize=26;horizontalStack=0;resizeParent=1;resizeParentMax=0;resizeLast=0;collapsible=1;marginBottom=0;fillColor=#f5f5f5;fontColor=#333333;strokeColor=#666666;" parent="WIyWlLk6GJQsqaUBKTNV-1" vertex="1">
          <mxGeometry x="-827.99" y="320.25" width="245" height="101" as="geometry" />
        </mxCell>
        <mxCell id="AF8taGSQTb52YkFh4nOF-98" value="" style="text;strokeColor=#666666;fillColor=#f5f5f5;align=left;verticalAlign=top;spacingLeft=4;spacingRight=4;overflow=hidden;rotatable=0;points=[[0,0.5],[1,0.5]];portConstraint=eastwest;fontColor=#333333;" parent="AF8taGSQTb52YkFh4nOF-97" vertex="1">
          <mxGeometry y="26" width="245" height="33" as="geometry" />
        </mxCell>
        <mxCell id="AF8taGSQTb52YkFh4nOF-99" value="+ checkPattern() : boolean" style="text;strokeColor=#666666;fillColor=#f5f5f5;align=left;verticalAlign=top;spacingLeft=4;spacingRight=4;overflow=hidden;rotatable=0;points=[[0,0.5],[1,0.5]];portConstraint=eastwest;fontColor=#333333;" parent="AF8taGSQTb52YkFh4nOF-97" vertex="1">
          <mxGeometry y="59" width="245" height="42" as="geometry" />
        </mxCell>
        <mxCell id="AF8taGSQTb52YkFh4nOF-101" value="CommonGoalCard1" style="swimlane;fontStyle=1;align=center;verticalAlign=top;childLayout=stackLayout;horizontal=1;startSize=26;horizontalStack=0;resizeParent=1;resizeParentMax=0;resizeLast=0;collapsible=1;marginBottom=0;fillColor=#f5f5f5;fontColor=#333333;strokeColor=#666666;" parent="WIyWlLk6GJQsqaUBKTNV-1" vertex="1">
          <mxGeometry x="-827.99" y="-39.75000000000001" width="245" height="101" as="geometry" />
        </mxCell>
        <mxCell id="AF8taGSQTb52YkFh4nOF-102" value="" style="text;strokeColor=#666666;fillColor=#f5f5f5;align=left;verticalAlign=top;spacingLeft=4;spacingRight=4;overflow=hidden;rotatable=0;points=[[0,0.5],[1,0.5]];portConstraint=eastwest;fontColor=#333333;" parent="AF8taGSQTb52YkFh4nOF-101" vertex="1">
          <mxGeometry y="26" width="245" height="33" as="geometry" />
        </mxCell>
        <mxCell id="AF8taGSQTb52YkFh4nOF-103" value="+ checkPattern() : boolean" style="text;strokeColor=#666666;fillColor=#f5f5f5;align=left;verticalAlign=top;spacingLeft=4;spacingRight=4;overflow=hidden;rotatable=0;points=[[0,0.5],[1,0.5]];portConstraint=eastwest;fontColor=#333333;" parent="AF8taGSQTb52YkFh4nOF-101" vertex="1">
          <mxGeometry y="59" width="245" height="42" as="geometry" />
        </mxCell>
        <mxCell id="AF8taGSQTb52YkFh4nOF-104" value="CommonGoalCard2" style="swimlane;fontStyle=1;align=center;verticalAlign=top;childLayout=stackLayout;horizontal=1;startSize=26;horizontalStack=0;resizeParent=1;resizeParentMax=0;resizeLast=0;collapsible=1;marginBottom=0;fillColor=#f5f5f5;fontColor=#333333;strokeColor=#666666;" parent="WIyWlLk6GJQsqaUBKTNV-1" vertex="1">
          <mxGeometry x="-827.99" y="80.25" width="245" height="59" as="geometry" />
        </mxCell>
        <mxCell id="AF8taGSQTb52YkFh4nOF-105" value="" style="text;strokeColor=#666666;fillColor=#f5f5f5;align=left;verticalAlign=top;spacingLeft=4;spacingRight=4;overflow=hidden;rotatable=0;points=[[0,0.5],[1,0.5]];portConstraint=eastwest;fontColor=#333333;" parent="AF8taGSQTb52YkFh4nOF-104" vertex="1">
          <mxGeometry y="26" width="245" height="33" as="geometry" />
        </mxCell>
        <mxCell id="AF8taGSQTb52YkFh4nOF-108" value="CommonGoalCard9" style="swimlane;fontStyle=1;align=center;verticalAlign=top;childLayout=stackLayout;horizontal=1;startSize=26;horizontalStack=0;resizeParent=1;resizeParentMax=0;resizeLast=0;collapsible=1;marginBottom=0;fillColor=#f5f5f5;fontColor=#333333;strokeColor=#666666;" parent="WIyWlLk6GJQsqaUBKTNV-1" vertex="1">
          <mxGeometry x="-304.48" y="200.25" width="245" height="101" as="geometry" />
        </mxCell>
        <mxCell id="AF8taGSQTb52YkFh4nOF-109" value="" style="text;strokeColor=#666666;fillColor=#f5f5f5;align=left;verticalAlign=top;spacingLeft=4;spacingRight=4;overflow=hidden;rotatable=0;points=[[0,0.5],[1,0.5]];portConstraint=eastwest;fontColor=#333333;" parent="AF8taGSQTb52YkFh4nOF-108" vertex="1">
          <mxGeometry y="26" width="245" height="33" as="geometry" />
        </mxCell>
        <mxCell id="AF8taGSQTb52YkFh4nOF-110" value="+ checkPattern() : boolean" style="text;strokeColor=#666666;fillColor=#f5f5f5;align=left;verticalAlign=top;spacingLeft=4;spacingRight=4;overflow=hidden;rotatable=0;points=[[0,0.5],[1,0.5]];portConstraint=eastwest;fontColor=#333333;" parent="AF8taGSQTb52YkFh4nOF-108" vertex="1">
          <mxGeometry y="59" width="245" height="42" as="geometry" />
        </mxCell>
        <mxCell id="AF8taGSQTb52YkFh4nOF-111" value="CommonGoalCard10" style="swimlane;fontStyle=1;align=center;verticalAlign=top;childLayout=stackLayout;horizontal=1;startSize=26;horizontalStack=0;resizeParent=1;resizeParentMax=0;resizeLast=0;collapsible=1;marginBottom=0;fillColor=#f5f5f5;fontColor=#333333;strokeColor=#666666;" parent="WIyWlLk6GJQsqaUBKTNV-1" vertex="1">
          <mxGeometry x="-304.48" y="320.25" width="245" height="101" as="geometry" />
        </mxCell>
        <mxCell id="AF8taGSQTb52YkFh4nOF-112" value="" style="text;strokeColor=#666666;fillColor=#f5f5f5;align=left;verticalAlign=top;spacingLeft=4;spacingRight=4;overflow=hidden;rotatable=0;points=[[0,0.5],[1,0.5]];portConstraint=eastwest;fontColor=#333333;" parent="AF8taGSQTb52YkFh4nOF-111" vertex="1">
          <mxGeometry y="26" width="245" height="33" as="geometry" />
        </mxCell>
        <mxCell id="AF8taGSQTb52YkFh4nOF-113" value="+ checkPattern() : boolean" style="text;strokeColor=#666666;fillColor=#f5f5f5;align=left;verticalAlign=top;spacingLeft=4;spacingRight=4;overflow=hidden;rotatable=0;points=[[0,0.5],[1,0.5]];portConstraint=eastwest;fontColor=#333333;" parent="AF8taGSQTb52YkFh4nOF-111" vertex="1">
          <mxGeometry y="59" width="245" height="42" as="geometry" />
        </mxCell>
        <mxCell id="AF8taGSQTb52YkFh4nOF-115" value="CommonGoalCard7" style="swimlane;fontStyle=1;align=center;verticalAlign=top;childLayout=stackLayout;horizontal=1;startSize=26;horizontalStack=0;resizeParent=1;resizeParentMax=0;resizeLast=0;collapsible=1;marginBottom=0;fillColor=#f5f5f5;strokeColor=#666666;fontColor=#333333;" parent="WIyWlLk6GJQsqaUBKTNV-1" vertex="1">
          <mxGeometry x="-301.99" y="-39.75000000000001" width="245" height="101" as="geometry" />
        </mxCell>
        <mxCell id="AF8taGSQTb52YkFh4nOF-116" value="" style="text;strokeColor=#666666;fillColor=#f5f5f5;align=left;verticalAlign=top;spacingLeft=4;spacingRight=4;overflow=hidden;rotatable=0;points=[[0,0.5],[1,0.5]];portConstraint=eastwest;fontColor=#333333;" parent="AF8taGSQTb52YkFh4nOF-115" vertex="1">
          <mxGeometry y="26" width="245" height="33" as="geometry" />
        </mxCell>
        <mxCell id="AF8taGSQTb52YkFh4nOF-117" value="+ checkPattern() : boolean" style="text;strokeColor=#666666;fillColor=#f5f5f5;align=left;verticalAlign=top;spacingLeft=4;spacingRight=4;overflow=hidden;rotatable=0;points=[[0,0.5],[1,0.5]];portConstraint=eastwest;fontColor=#333333;" parent="AF8taGSQTb52YkFh4nOF-115" vertex="1">
          <mxGeometry y="59" width="245" height="42" as="geometry" />
        </mxCell>
        <mxCell id="AF8taGSQTb52YkFh4nOF-118" value="CommonGoalCard8" style="swimlane;fontStyle=1;align=center;verticalAlign=top;childLayout=stackLayout;horizontal=1;startSize=26;horizontalStack=0;resizeParent=1;resizeParentMax=0;resizeLast=0;collapsible=1;marginBottom=0;fillColor=#f5f5f5;fontColor=#333333;strokeColor=#666666;" parent="WIyWlLk6GJQsqaUBKTNV-1" vertex="1">
          <mxGeometry x="-304.48" y="80.25" width="245" height="101" as="geometry" />
        </mxCell>
        <mxCell id="AF8taGSQTb52YkFh4nOF-119" value="" style="text;strokeColor=#666666;fillColor=#f5f5f5;align=left;verticalAlign=top;spacingLeft=4;spacingRight=4;overflow=hidden;rotatable=0;points=[[0,0.5],[1,0.5]];portConstraint=eastwest;fontColor=#333333;" parent="AF8taGSQTb52YkFh4nOF-118" vertex="1">
          <mxGeometry y="26" width="245" height="33" as="geometry" />
        </mxCell>
        <mxCell id="AF8taGSQTb52YkFh4nOF-120" value="+ checkPattern() : boolean" style="text;strokeColor=#666666;fillColor=#f5f5f5;align=left;verticalAlign=top;spacingLeft=4;spacingRight=4;overflow=hidden;rotatable=0;points=[[0,0.5],[1,0.5]];portConstraint=eastwest;fontColor=#333333;" parent="AF8taGSQTb52YkFh4nOF-118" vertex="1">
          <mxGeometry y="59" width="245" height="42" as="geometry" />
        </mxCell>
        <mxCell id="AF8taGSQTb52YkFh4nOF-122" value="CommonGoalCard5" style="swimlane;fontStyle=1;align=center;verticalAlign=top;childLayout=stackLayout;horizontal=1;startSize=26;horizontalStack=0;resizeParent=1;resizeParentMax=0;resizeLast=0;collapsible=1;marginBottom=0;fillColor=#f5f5f5;fontColor=#333333;strokeColor=#666666;" parent="WIyWlLk6GJQsqaUBKTNV-1" vertex="1">
          <mxGeometry x="-827.99" y="440.25" width="245" height="101" as="geometry" />
        </mxCell>
        <mxCell id="AF8taGSQTb52YkFh4nOF-123" value="" style="text;strokeColor=#666666;fillColor=#f5f5f5;align=left;verticalAlign=top;spacingLeft=4;spacingRight=4;overflow=hidden;rotatable=0;points=[[0,0.5],[1,0.5]];portConstraint=eastwest;fontColor=#333333;" parent="AF8taGSQTb52YkFh4nOF-122" vertex="1">
          <mxGeometry y="26" width="245" height="33" as="geometry" />
        </mxCell>
        <mxCell id="AF8taGSQTb52YkFh4nOF-124" value="+ checkPattern() : boolean" style="text;strokeColor=#666666;fillColor=#f5f5f5;align=left;verticalAlign=top;spacingLeft=4;spacingRight=4;overflow=hidden;rotatable=0;points=[[0,0.5],[1,0.5]];portConstraint=eastwest;fontColor=#333333;" parent="AF8taGSQTb52YkFh4nOF-122" vertex="1">
          <mxGeometry y="59" width="245" height="42" as="geometry" />
        </mxCell>
        <mxCell id="AF8taGSQTb52YkFh4nOF-125" value="CommonGoalCard6" style="swimlane;fontStyle=1;align=center;verticalAlign=top;childLayout=stackLayout;horizontal=1;startSize=26;horizontalStack=0;resizeParent=1;resizeParentMax=0;resizeLast=0;collapsible=1;marginBottom=0;fillColor=#f5f5f5;fontColor=#333333;strokeColor=#666666;" parent="WIyWlLk6GJQsqaUBKTNV-1" vertex="1">
          <mxGeometry x="-827.99" y="560.25" width="245" height="101" as="geometry" />
        </mxCell>
        <mxCell id="AF8taGSQTb52YkFh4nOF-126" value="" style="text;strokeColor=#666666;fillColor=#f5f5f5;align=left;verticalAlign=top;spacingLeft=4;spacingRight=4;overflow=hidden;rotatable=0;points=[[0,0.5],[1,0.5]];portConstraint=eastwest;fontColor=#333333;" parent="AF8taGSQTb52YkFh4nOF-125" vertex="1">
          <mxGeometry y="26" width="245" height="33" as="geometry" />
        </mxCell>
        <mxCell id="AF8taGSQTb52YkFh4nOF-127" value="+ checkPattern() : boolean" style="text;strokeColor=#666666;fillColor=#f5f5f5;align=left;verticalAlign=top;spacingLeft=4;spacingRight=4;overflow=hidden;rotatable=0;points=[[0,0.5],[1,0.5]];portConstraint=eastwest;fontColor=#333333;" parent="AF8taGSQTb52YkFh4nOF-125" vertex="1">
          <mxGeometry y="59" width="245" height="42" as="geometry" />
        </mxCell>
        <mxCell id="AF8taGSQTb52YkFh4nOF-129" value="CommonGoalCard9" style="swimlane;fontStyle=1;align=center;verticalAlign=top;childLayout=stackLayout;horizontal=1;startSize=26;horizontalStack=0;resizeParent=1;resizeParentMax=0;resizeLast=0;collapsible=1;marginBottom=0;fillColor=#f5f5f5;fontColor=#333333;strokeColor=#666666;" parent="WIyWlLk6GJQsqaUBKTNV-1" vertex="1">
          <mxGeometry x="-304.48" y="440.25" width="245" height="101" as="geometry" />
        </mxCell>
        <mxCell id="AF8taGSQTb52YkFh4nOF-130" value="" style="text;strokeColor=#666666;fillColor=#f5f5f5;align=left;verticalAlign=top;spacingLeft=4;spacingRight=4;overflow=hidden;rotatable=0;points=[[0,0.5],[1,0.5]];portConstraint=eastwest;fontColor=#333333;" parent="AF8taGSQTb52YkFh4nOF-129" vertex="1">
          <mxGeometry y="26" width="245" height="33" as="geometry" />
        </mxCell>
        <mxCell id="AF8taGSQTb52YkFh4nOF-131" value="+ checkPattern() : boolean" style="text;strokeColor=#666666;fillColor=#f5f5f5;align=left;verticalAlign=top;spacingLeft=4;spacingRight=4;overflow=hidden;rotatable=0;points=[[0,0.5],[1,0.5]];portConstraint=eastwest;fontColor=#333333;" parent="AF8taGSQTb52YkFh4nOF-129" vertex="1">
          <mxGeometry y="59" width="245" height="42" as="geometry" />
        </mxCell>
        <mxCell id="AF8taGSQTb52YkFh4nOF-132" value="CommonGoalCard10" style="swimlane;fontStyle=1;align=center;verticalAlign=top;childLayout=stackLayout;horizontal=1;startSize=26;horizontalStack=0;resizeParent=1;resizeParentMax=0;resizeLast=0;collapsible=1;marginBottom=0;fillColor=#f5f5f5;fontColor=#333333;strokeColor=#666666;" parent="WIyWlLk6GJQsqaUBKTNV-1" vertex="1">
          <mxGeometry x="-304.48" y="560.25" width="245" height="101" as="geometry" />
        </mxCell>
        <mxCell id="AF8taGSQTb52YkFh4nOF-133" value="" style="text;strokeColor=#666666;fillColor=#f5f5f5;align=left;verticalAlign=top;spacingLeft=4;spacingRight=4;overflow=hidden;rotatable=0;points=[[0,0.5],[1,0.5]];portConstraint=eastwest;fontColor=#333333;" parent="AF8taGSQTb52YkFh4nOF-132" vertex="1">
          <mxGeometry y="26" width="245" height="33" as="geometry" />
        </mxCell>
        <mxCell id="AF8taGSQTb52YkFh4nOF-134" value="+ checkPattern() : boolean" style="text;strokeColor=#666666;fillColor=#f5f5f5;align=left;verticalAlign=top;spacingLeft=4;spacingRight=4;overflow=hidden;rotatable=0;points=[[0,0.5],[1,0.5]];portConstraint=eastwest;fontColor=#333333;" parent="AF8taGSQTb52YkFh4nOF-132" vertex="1">
          <mxGeometry y="59" width="245" height="42" as="geometry" />
        </mxCell>
        <mxCell id="AF8taGSQTb52YkFh4nOF-136" value="Implements" style="endArrow=block;endSize=16;endFill=0;html=1;rounded=1;labelBackgroundColor=none;dashed=1;" parent="WIyWlLk6GJQsqaUBKTNV-1" edge="1">
          <mxGeometry width="160" relative="1" as="geometry">
            <mxPoint x="-440" y="610" as="sourcePoint" />
            <mxPoint x="-440" y="-160" as="targetPoint" />
            <Array as="points">
              <mxPoint x="-439.99" y="110.25" />
            </Array>
          </mxGeometry>
        </mxCell>
        <mxCell id="AF8taGSQTb52YkFh4nOF-137" value="" style="endArrow=none;html=1;labelBackgroundColor=none;curved=1;dashed=1;" parent="WIyWlLk6GJQsqaUBKTNV-1" source="AF8taGSQTb52YkFh4nOF-125" edge="1">
          <mxGeometry width="50" height="50" relative="1" as="geometry">
            <mxPoint x="-552.99" y="650.25" as="sourcePoint" />
            <mxPoint x="-442.99" y="610.25" as="targetPoint" />
          </mxGeometry>
        </mxCell>
        <mxCell id="AF8taGSQTb52YkFh4nOF-139" value="" style="endArrow=none;html=1;labelBackgroundColor=none;curved=1;dashed=1;" parent="WIyWlLk6GJQsqaUBKTNV-1" edge="1">
          <mxGeometry width="50" height="50" relative="1" as="geometry">
            <mxPoint x="-582.99" y="490.5166666666669" as="sourcePoint" />
            <mxPoint x="-442.99" y="490.25" as="targetPoint" />
          </mxGeometry>
        </mxCell>
        <mxCell id="AF8taGSQTb52YkFh4nOF-140" value="" style="endArrow=none;html=1;labelBackgroundColor=none;curved=1;dashed=1;" parent="WIyWlLk6GJQsqaUBKTNV-1" edge="1">
          <mxGeometry width="50" height="50" relative="1" as="geometry">
            <mxPoint x="-582.99" y="370.5166666666669" as="sourcePoint" />
            <mxPoint x="-442.99" y="370.25" as="targetPoint" />
          </mxGeometry>
        </mxCell>
        <mxCell id="AF8taGSQTb52YkFh4nOF-141" value="" style="endArrow=none;html=1;labelBackgroundColor=none;curved=1;dashed=1;" parent="WIyWlLk6GJQsqaUBKTNV-1" edge="1">
          <mxGeometry width="50" height="50" relative="1" as="geometry">
            <mxPoint x="-582.99" y="250.01666666666688" as="sourcePoint" />
            <mxPoint x="-442.99" y="249.75" as="targetPoint" />
          </mxGeometry>
        </mxCell>
        <mxCell id="AF8taGSQTb52YkFh4nOF-142" value="" style="endArrow=none;html=1;labelBackgroundColor=none;curved=1;dashed=1;" parent="WIyWlLk6GJQsqaUBKTNV-1" edge="1">
          <mxGeometry width="50" height="50" relative="1" as="geometry">
            <mxPoint x="-582.99" y="130.51666666666688" as="sourcePoint" />
            <mxPoint x="-442.99" y="130.25" as="targetPoint" />
          </mxGeometry>
        </mxCell>
        <mxCell id="AF8taGSQTb52YkFh4nOF-143" value="" style="endArrow=none;html=1;labelBackgroundColor=none;curved=1;dashed=1;" parent="WIyWlLk6GJQsqaUBKTNV-1" edge="1">
          <mxGeometry width="50" height="50" relative="1" as="geometry">
            <mxPoint x="-582.99" y="10.516666666666886" as="sourcePoint" />
            <mxPoint x="-442.99" y="10.250000000000007" as="targetPoint" />
          </mxGeometry>
        </mxCell>
        <mxCell id="AF8taGSQTb52YkFh4nOF-144" value="" style="endArrow=none;html=1;labelBackgroundColor=none;curved=1;dashed=1;" parent="WIyWlLk6GJQsqaUBKTNV-1" edge="1">
          <mxGeometry width="50" height="50" relative="1" as="geometry">
            <mxPoint x="-441.99" y="610.5166666666669" as="sourcePoint" />
            <mxPoint x="-301.99" y="610.25" as="targetPoint" />
          </mxGeometry>
        </mxCell>
        <mxCell id="AF8taGSQTb52YkFh4nOF-145" value="" style="endArrow=none;html=1;labelBackgroundColor=none;curved=1;dashed=1;" parent="WIyWlLk6GJQsqaUBKTNV-1" edge="1">
          <mxGeometry width="50" height="50" relative="1" as="geometry">
            <mxPoint x="-446.49" y="490.5166666666669" as="sourcePoint" />
            <mxPoint x="-306.49" y="490.25" as="targetPoint" />
          </mxGeometry>
        </mxCell>
        <mxCell id="AF8taGSQTb52YkFh4nOF-146" value="" style="endArrow=none;html=1;labelBackgroundColor=none;curved=1;dashed=1;" parent="WIyWlLk6GJQsqaUBKTNV-1" edge="1">
          <mxGeometry width="50" height="50" relative="1" as="geometry">
            <mxPoint x="-446.49" y="370.5166666666669" as="sourcePoint" />
            <mxPoint x="-306.49" y="370.25" as="targetPoint" />
          </mxGeometry>
        </mxCell>
        <mxCell id="AF8taGSQTb52YkFh4nOF-147" value="" style="endArrow=none;html=1;labelBackgroundColor=none;curved=1;dashed=1;" parent="WIyWlLk6GJQsqaUBKTNV-1" edge="1">
          <mxGeometry width="50" height="50" relative="1" as="geometry">
            <mxPoint x="-441.99" y="250.01666666666688" as="sourcePoint" />
            <mxPoint x="-301.99" y="249.75" as="targetPoint" />
          </mxGeometry>
        </mxCell>
        <mxCell id="AF8taGSQTb52YkFh4nOF-148" value="" style="endArrow=none;html=1;labelBackgroundColor=none;curved=1;dashed=1;" parent="WIyWlLk6GJQsqaUBKTNV-1" edge="1">
          <mxGeometry width="50" height="50" relative="1" as="geometry">
            <mxPoint x="-441.99" y="130.51666666666688" as="sourcePoint" />
            <mxPoint x="-301.99" y="130.25" as="targetPoint" />
          </mxGeometry>
        </mxCell>
        <mxCell id="AF8taGSQTb52YkFh4nOF-149" value="" style="endArrow=none;html=1;labelBackgroundColor=none;curved=1;dashed=1;" parent="WIyWlLk6GJQsqaUBKTNV-1" edge="1">
          <mxGeometry width="50" height="50" relative="1" as="geometry">
            <mxPoint x="-441.99" y="10.616666666666873" as="sourcePoint" />
            <mxPoint x="-301.99" y="10.349999999999994" as="targetPoint" />
          </mxGeometry>
        </mxCell>
        <mxCell id="AF8taGSQTb52YkFh4nOF-152" value="0..n" style="text;html=1;align=center;verticalAlign=middle;resizable=0;points=[];autosize=1;strokeColor=none;fillColor=none;" parent="WIyWlLk6GJQsqaUBKTNV-1" vertex="1">
          <mxGeometry x="442.5" y="71" width="40" height="30" as="geometry" />
        </mxCell>
        <mxCell id="AF8taGSQTb52YkFh4nOF-154" value="" style="endArrow=diamondThin;endFill=1;endSize=24;html=1;rounded=1;labelBackgroundColor=none;entryX=0.511;entryY=1.038;entryDx=0;entryDy=0;entryPerimeter=0;" parent="WIyWlLk6GJQsqaUBKTNV-1" target="HeNyDOu_JDfbKaOdh0E8-7" edge="1">
          <mxGeometry width="160" relative="1" as="geometry">
            <mxPoint x="583" y="40" as="sourcePoint" />
            <mxPoint x="650" y="70" as="targetPoint" />
          </mxGeometry>
        </mxCell>
        <mxCell id="AF8taGSQTb52YkFh4nOF-155" value="" style="endArrow=diamondThin;endFill=1;endSize=24;html=1;rounded=1;labelBackgroundColor=none;edgeStyle=orthogonalEdgeStyle;" parent="WIyWlLk6GJQsqaUBKTNV-1" source="TG_g14gipUIJD300kOHJ-9" target="HeNyDOu_JDfbKaOdh0E8-8" edge="1">
          <mxGeometry width="160" relative="1" as="geometry">
            <mxPoint x="1081.0199999999998" y="-116.99700000000007" as="sourcePoint" />
            <mxPoint x="1083.99" y="-403.01" as="targetPoint" />
          </mxGeometry>
        </mxCell>
        <mxCell id="AF8taGSQTb52YkFh4nOF-156" value="1" style="text;html=1;align=center;verticalAlign=middle;resizable=0;points=[];autosize=1;strokeColor=none;fillColor=none;" parent="WIyWlLk6GJQsqaUBKTNV-1" vertex="1">
          <mxGeometry x="582.5" y="-90" width="30" height="30" as="geometry" />
        </mxCell>
        <mxCell id="AF8taGSQTb52YkFh4nOF-157" value="0..30" style="text;html=1;align=center;verticalAlign=middle;resizable=0;points=[];autosize=1;strokeColor=none;fillColor=none;" parent="WIyWlLk6GJQsqaUBKTNV-1" vertex="1">
          <mxGeometry x="572.5" y="20" width="50" height="30" as="geometry" />
        </mxCell>
        <mxCell id="AF8taGSQTb52YkFh4nOF-158" value="0..30" style="text;html=1;align=center;verticalAlign=middle;resizable=0;points=[];autosize=1;strokeColor=none;fillColor=none;" parent="WIyWlLk6GJQsqaUBKTNV-1" vertex="1">
          <mxGeometry x="710" y="71" width="50" height="30" as="geometry" />
        </mxCell>
        <mxCell id="AF8taGSQTb52YkFh4nOF-159" value="1" style="text;html=1;align=center;verticalAlign=middle;resizable=0;points=[];autosize=1;strokeColor=none;fillColor=none;" parent="WIyWlLk6GJQsqaUBKTNV-1" vertex="1">
          <mxGeometry x="1050" y="-469" width="30" height="30" as="geometry" />
        </mxCell>
        <mxCell id="AF8taGSQTb52YkFh4nOF-169" value="" style="endArrow=diamondThin;endFill=1;endSize=24;html=1;rounded=1;labelBackgroundColor=none;entryX=0.511;entryY=1.038;entryDx=0;entryDy=0;entryPerimeter=0;exitX=0.004;exitY=0.758;exitDx=0;exitDy=0;exitPerimeter=0;" parent="WIyWlLk6GJQsqaUBKTNV-1" source="TG_g14gipUIJD300kOHJ-10" edge="1">
          <mxGeometry width="160" relative="1" as="geometry">
            <mxPoint x="-440" y="756.96" as="sourcePoint" />
            <mxPoint x="-439.9200000000001" y="620" as="targetPoint" />
            <Array as="points">
              <mxPoint x="160" y="90" />
              <mxPoint x="160" y="720" />
              <mxPoint x="-440" y="720" />
            </Array>
          </mxGeometry>
        </mxCell>
        <mxCell id="AF8taGSQTb52YkFh4nOF-106" value="+ checkPattern() : boolean" style="text;strokeColor=#666666;fillColor=#f5f5f5;align=left;verticalAlign=top;spacingLeft=4;spacingRight=4;overflow=hidden;rotatable=0;points=[[0,0.5],[1,0.5]];portConstraint=eastwest;fontColor=#333333;" parent="WIyWlLk6GJQsqaUBKTNV-1" vertex="1">
          <mxGeometry x="-827.99" y="139.25" width="245" height="42" as="geometry" />
        </mxCell>
        <mxCell id="DghKA2KYyA9w5VaaPugn-7" value="" style="endArrow=classic;html=1;rounded=0;dashed=1;" parent="WIyWlLk6GJQsqaUBKTNV-1" source="TG_g14gipUIJD300kOHJ-12" target="HeNyDOu_JDfbKaOdh0E8-16" edge="1">
          <mxGeometry width="50" height="50" relative="1" as="geometry">
            <mxPoint x="550" y="240" as="sourcePoint" />
            <mxPoint x="600" y="190" as="targetPoint" />
          </mxGeometry>
        </mxCell>
        <mxCell id="DghKA2KYyA9w5VaaPugn-8" value="" style="endArrow=classic;html=1;rounded=0;dashed=1;" parent="WIyWlLk6GJQsqaUBKTNV-1" source="AF8taGSQTb52YkFh4nOF-42" target="AF8taGSQTb52YkFh4nOF-45" edge="1">
          <mxGeometry width="50" height="50" relative="1" as="geometry">
            <mxPoint x="59.51048625792782" y="-100" as="sourcePoint" />
            <mxPoint x="-59.48000000000002" y="-42.56887755102025" as="targetPoint" />
          </mxGeometry>
        </mxCell>
        <mxCell id="DghKA2KYyA9w5VaaPugn-9" value="" style="endArrow=classic;html=1;rounded=0;dashed=1;" parent="WIyWlLk6GJQsqaUBKTNV-1" source="dTjtzGn-DZdnPieQcymC-0" target="dTjtzGn-DZdnPieQcymC-9" edge="1">
          <mxGeometry width="50" height="50" relative="1" as="geometry">
            <mxPoint x="-185.48951374207218" y="-417.42999999999995" as="sourcePoint" />
            <mxPoint x="-304.48" y="-359.9988775510202" as="targetPoint" />
          </mxGeometry>
        </mxCell>
        <mxCell id="Bc4TnsWlUAblkgccjZVZ-0" value="ArrayList" style="html=1;whiteSpace=wrap;fillColor=#f5f5f5;fontColor=#333333;strokeColor=#666666;" vertex="1" parent="WIyWlLk6GJQsqaUBKTNV-1">
          <mxGeometry x="-485" y="-830" width="110" height="50" as="geometry" />
        </mxCell>
        <mxCell id="Bc4TnsWlUAblkgccjZVZ-1" value="CircularArrayList" style="swimlane;fontStyle=1;align=center;verticalAlign=top;childLayout=stackLayout;horizontal=1;startSize=26;horizontalStack=0;resizeParent=1;resizeParentMax=0;resizeLast=0;collapsible=1;marginBottom=0;whiteSpace=wrap;html=1;fillColor=#f5f5f5;fontColor=#333333;strokeColor=#666666;" vertex="1" parent="WIyWlLk6GJQsqaUBKTNV-1">
          <mxGeometry x="-510" y="-713" width="160" height="78" as="geometry" />
        </mxCell>
        <mxCell id="Bc4TnsWlUAblkgccjZVZ-2" value="- Player : player" style="text;strokeColor=#666666;fillColor=#f5f5f5;align=left;verticalAlign=top;spacingLeft=4;spacingRight=4;overflow=hidden;rotatable=0;points=[[0,0.5],[1,0.5]];portConstraint=eastwest;whiteSpace=wrap;html=1;fontColor=#333333;" vertex="1" parent="Bc4TnsWlUAblkgccjZVZ-1">
          <mxGeometry y="26" width="160" height="26" as="geometry" />
        </mxCell>
        <mxCell id="Bc4TnsWlUAblkgccjZVZ-4" value="- get(int) : Player" style="text;strokeColor=#666666;fillColor=#f5f5f5;align=left;verticalAlign=top;spacingLeft=4;spacingRight=4;overflow=hidden;rotatable=0;points=[[0,0.5],[1,0.5]];portConstraint=eastwest;whiteSpace=wrap;html=1;fontColor=#333333;" vertex="1" parent="Bc4TnsWlUAblkgccjZVZ-1">
          <mxGeometry y="52" width="160" height="26" as="geometry" />
        </mxCell>
        <mxCell id="Bc4TnsWlUAblkgccjZVZ-5" value="Extends" style="endArrow=block;endSize=16;endFill=0;html=1;rounded=0;exitX=0.5;exitY=0;exitDx=0;exitDy=0;fillColor=#f5f5f5;strokeColor=#666666;" edge="1" parent="WIyWlLk6GJQsqaUBKTNV-1" source="Bc4TnsWlUAblkgccjZVZ-1" target="Bc4TnsWlUAblkgccjZVZ-0">
          <mxGeometry width="160" relative="1" as="geometry">
            <mxPoint x="-465" y="-450" as="sourcePoint" />
            <mxPoint x="-305" y="-450" as="targetPoint" />
          </mxGeometry>
        </mxCell>
        <mxCell id="Bc4TnsWlUAblkgccjZVZ-6" value="CommonGoalCardDeck" style="swimlane;fontStyle=1;align=center;verticalAlign=top;childLayout=stackLayout;horizontal=1;startSize=26;horizontalStack=0;resizeParent=1;resizeParentMax=0;resizeLast=0;collapsible=1;marginBottom=0;whiteSpace=wrap;html=1;fillColor=#f5f5f5;fontColor=#333333;strokeColor=#666666;" vertex="1" parent="WIyWlLk6GJQsqaUBKTNV-1">
          <mxGeometry x="-601.99" y="-510" width="320" height="78" as="geometry" />
        </mxCell>
        <mxCell id="Bc4TnsWlUAblkgccjZVZ-7" value="- deck : HashMap&amp;lt;CommonGoalCard, Stack&amp;lt;Integer&amp;gt;&amp;gt;" style="text;strokeColor=#666666;fillColor=#f5f5f5;align=left;verticalAlign=top;spacingLeft=4;spacingRight=4;overflow=hidden;rotatable=0;points=[[0,0.5],[1,0.5]];portConstraint=eastwest;whiteSpace=wrap;html=1;fontColor=#333333;" vertex="1" parent="Bc4TnsWlUAblkgccjZVZ-6">
          <mxGeometry y="26" width="320" height="26" as="geometry" />
        </mxCell>
        <mxCell id="Bc4TnsWlUAblkgccjZVZ-9" value="+ draw() : int" style="text;strokeColor=#666666;fillColor=#f5f5f5;align=left;verticalAlign=top;spacingLeft=4;spacingRight=4;overflow=hidden;rotatable=0;points=[[0,0.5],[1,0.5]];portConstraint=eastwest;whiteSpace=wrap;html=1;fontColor=#333333;" vertex="1" parent="Bc4TnsWlUAblkgccjZVZ-6">
          <mxGeometry y="52" width="320" height="26" as="geometry" />
        </mxCell>
        <mxCell id="Bc4TnsWlUAblkgccjZVZ-11" value="1" style="edgeLabel;resizable=0;html=1;align=left;verticalAlign=bottom;fillColor=#FFF4C3;direction=south;" connectable="0" vertex="1" parent="WIyWlLk6GJQsqaUBKTNV-1">
          <mxGeometry x="-270" y="-471" as="geometry" />
        </mxCell>
        <mxCell id="Bc4TnsWlUAblkgccjZVZ-13" value="Use" style="endArrow=open;endSize=12;dashed=1;html=1;rounded=0;" edge="1" parent="WIyWlLk6GJQsqaUBKTNV-1" source="Bc4TnsWlUAblkgccjZVZ-6" target="HeNyDOu_JDfbKaOdh0E8-39">
          <mxGeometry width="160" relative="1" as="geometry">
            <mxPoint x="-470" y="-370" as="sourcePoint" />
            <mxPoint x="-310" y="-370" as="targetPoint" />
          </mxGeometry>
        </mxCell>
        <mxCell id="Bc4TnsWlUAblkgccjZVZ-17" value="" style="endArrow=classic;html=1;rounded=1;entryX=1;entryY=0.5;entryDx=0;entryDy=0;" edge="1" parent="WIyWlLk6GJQsqaUBKTNV-1" target="Bc4TnsWlUAblkgccjZVZ-9">
          <mxGeometry width="50" height="50" relative="1" as="geometry">
            <mxPoint x="440" y="-440" as="sourcePoint" />
            <mxPoint x="-330" y="-100" as="targetPoint" />
            <Array as="points">
              <mxPoint x="400" y="-440" />
              <mxPoint x="400" y="-90" />
              <mxPoint x="-220" y="-90" />
              <mxPoint x="-220" y="-445" />
            </Array>
          </mxGeometry>
        </mxCell>
        <mxCell id="Bc4TnsWlUAblkgccjZVZ-18" value="has" style="text;whiteSpace=wrap;html=1;" vertex="1" parent="WIyWlLk6GJQsqaUBKTNV-1">
          <mxGeometry x="390" y="-280" width="50" height="40" as="geometry" />
        </mxCell>
        <mxCell id="Bc4TnsWlUAblkgccjZVZ-19" value="1" style="edgeLabel;resizable=0;html=1;align=right;verticalAlign=bottom;fillColor=#FFF4C3;" connectable="0" vertex="1" parent="WIyWlLk6GJQsqaUBKTNV-1">
          <mxGeometry x="435" y="-439" as="geometry" />
        </mxCell>
        <mxCell id="Bc4TnsWlUAblkgccjZVZ-20" value="0..2" style="edgeLabel;resizable=0;html=1;align=right;verticalAlign=bottom;fillColor=#FFF4C3;" connectable="0" vertex="1" parent="WIyWlLk6GJQsqaUBKTNV-1">
          <mxGeometry x="-250" y="-430" as="geometry" />
        </mxCell>
      </root>
    </mxGraphModel>
  </diagram>
</mxfile>
